<?xml version="1.0" encoding="utf-8"?>
<!-- Generator: Adobe Illustrator 22.1.0, SVG Export Plug-In . SVG Version: 6.00 Build 0)  -->
<svg version="1.1" id="Layer_1" xmlns="http://www.w3.org/2000/svg" xmlns:xlink="http://www.w3.org/1999/xlink" x="0px" y="0px"
	 viewBox="0 0 151.2 87" style="enable-background:new 0 0 151.2 87;" xml:space="preserve">
<style type="text/css">
	.st0{fill:#414042;}
	.st1{fill:#F9F9F9;}
</style>
<rect x="2.8" y="5" class="st0" width="144.5" height="79.1"/>
<path class="st1" d="M50.4,17C40.1,17.9,38,17,31,11.3l0,0l0,0l0,0l0,0c-6.9,5.7-9.1,6.6-19.4,5.7c0,0-1,7.8,0.1,13.5
	c1.6,7.8,5.8,14.3,11.2,19c3.8,3.3,7.2,4.6,8,4.9v0.1c0,0,0,0,0.1,0h0.1c0,0,0,0,0-0.1c0.7-0.3,4.1-1.6,8-4.9
	c5.5-4.7,9.6-11.3,11.2-19C51.5,24.7,50.4,17,50.4,17z M15.8,32.8c-0.2-0.6-0.3-1.3-0.5-1.9c-1-4.7-0.1-11.1-0.1-11.1
	c8.4,0.8,10.2,0,15.8-4.6l0,0l0,0v17.6H15.8z M37.6,46.5c-3.1,2.7-5.9,3.8-6.5,4l0,0c0,0,0,0-0.1,0h-0.1l0,0c0,0,0,0-0.1,0H31V32.8
	h15.3C44.7,38.4,41.6,43,37.6,46.5z"/>
<g>
	<path class="st1" d="M72.6,17.6c0.5,0,1,0.1,1.5,0.2c0.4,0.2,0.8,0.4,1.1,0.7c0.3,0.3,0.6,0.7,0.7,1.1s0.3,0.9,0.3,1.5
		c0,0.5-0.1,1-0.3,1.5c-0.2,0.4-0.4,0.8-0.7,1.1c-0.3,0.3-0.7,0.5-1.1,0.7s-0.9,0.2-1.5,0.2h-4.2v5.2h-1.1v-12h5.3V17.6z M72.4,23.5
		c0.8,0,1.4-0.2,1.9-0.6s0.7-1,0.7-1.9s-0.2-1.5-0.7-1.9s-1.1-0.6-1.9-0.6h-3.9v4.9h3.9V23.5z"/>
	<path class="st1" d="M86.2,20c-0.2-0.4-0.5-0.7-0.8-0.9c-0.3-0.2-0.7-0.4-1.1-0.6c-0.4-0.1-0.8-0.2-1.3-0.2c-0.8,0-1.5,0.2-2.1,0.5
		s-1,0.7-1.4,1.2s-0.6,1.1-0.8,1.7c-0.2,0.6-0.3,1.3-0.3,1.9c0,0.7,0.1,1.3,0.3,1.9c0.2,0.6,0.4,1.2,0.8,1.7s0.8,0.9,1.4,1.2
		c0.6,0.3,1.3,0.5,2.1,0.5c0.6,0,1.1-0.1,1.5-0.3c0.4-0.2,0.8-0.5,1.2-0.8c0.3-0.3,0.6-0.8,0.8-1.2c0.2-0.5,0.3-1,0.4-1.5H88
		c-0.1,0.7-0.3,1.4-0.5,2c-0.3,0.6-0.6,1.1-1,1.5s-0.9,0.7-1.5,1c-0.6,0.2-1.2,0.3-1.9,0.3c-0.9,0-1.8-0.2-2.5-0.5s-1.3-0.8-1.8-1.4
		s-0.8-1.2-1.1-2c-0.2-0.8-0.4-1.5-0.4-2.4c0-0.8,0.1-1.6,0.4-2.4c0.2-0.8,0.6-1.4,1.1-2s1.1-1,1.8-1.4c0.7-0.3,1.5-0.5,2.5-0.5
		c0.6,0,1.1,0.1,1.7,0.3c0.5,0.2,1,0.4,1.5,0.8c0.4,0.3,0.8,0.7,1.1,1.2c0.3,0.5,0.5,1,0.6,1.7h-1.1C86.6,20.8,86.5,20.4,86.2,20z"
		/>
	<path class="st1" d="M91,17.6v12h-1.1v-12H91z"/>
	<path class="st1" d="M102.4,17.6c1.8,0,3.2,0.6,4.1,1.5c0.9,1,1.4,2.5,1.4,4.5s-0.5,3.5-1.4,4.5s-2.3,1.5-4.1,1.5h-4.2v-12H102.4z
		 M101.8,28.7c0.9,0,1.6-0.1,2.2-0.3c0.6-0.2,1.1-0.5,1.5-0.9s0.7-0.9,0.9-1.6c0.2-0.6,0.3-1.4,0.3-2.3s-0.1-1.7-0.3-2.3
		c-0.2-0.6-0.5-1.2-0.9-1.6s-0.9-0.7-1.5-0.9c-0.6-0.2-1.4-0.3-2.2-0.3h-2.4v10.1L101.8,28.7L101.8,28.7z"/>
	<path class="st1" d="M110.6,27.2c0.2,0.4,0.5,0.7,0.8,1c0.4,0.2,0.8,0.4,1.3,0.5s1,0.2,1.6,0.2c0.3,0,0.7,0,1-0.1
		c0.4-0.1,0.7-0.2,1-0.4c0.3-0.2,0.6-0.4,0.8-0.8c0.2-0.3,0.3-0.7,0.3-1.1c0-0.3-0.1-0.6-0.2-0.9c-0.2-0.2-0.3-0.5-0.6-0.6
		c-0.2-0.2-0.5-0.3-0.8-0.4s-0.6-0.2-0.9-0.3l-2.7-0.7c-0.3-0.1-0.7-0.2-1-0.3c-0.3-0.1-0.6-0.3-0.9-0.5c-0.2-0.2-0.4-0.5-0.6-0.8
		s-0.2-0.7-0.2-1.2c0-0.3,0.1-0.6,0.2-1s0.3-0.8,0.6-1.1c0.3-0.3,0.7-0.6,1.3-0.9c0.5-0.2,1.2-0.4,2.1-0.4c0.6,0,1.2,0.1,1.7,0.2
		c0.5,0.2,1,0.4,1.4,0.7c0.4,0.3,0.7,0.7,1,1.2c0.2,0.5,0.4,1,0.4,1.6H117c0-0.5-0.1-0.9-0.3-1.2s-0.4-0.6-0.7-0.9
		c-0.3-0.2-0.6-0.4-1-0.5s-0.8-0.2-1.2-0.2c-0.4,0-0.8,0-1.1,0.1c-0.4,0.1-0.7,0.2-1,0.4c-0.3,0.2-0.5,0.4-0.7,0.7
		c-0.2,0.3-0.3,0.7-0.3,1.1c0,0.3,0,0.5,0.1,0.7s0.2,0.4,0.4,0.5c0.2,0.1,0.4,0.3,0.6,0.4s0.5,0.2,0.7,0.2l2.9,0.7
		c0.4,0.1,0.8,0.3,1.2,0.4c0.4,0.2,0.7,0.4,1,0.6s0.5,0.5,0.7,0.9c0.2,0.3,0.2,0.8,0.2,1.3c0,0.1,0,0.3,0,0.5s-0.1,0.5-0.2,0.7
		c-0.1,0.3-0.3,0.5-0.5,0.8s-0.5,0.5-0.8,0.7s-0.8,0.4-1.3,0.5s-1.1,0.2-1.8,0.2c-0.7,0-1.4-0.1-2-0.2c-0.6-0.2-1.1-0.4-1.6-0.8
		c-0.4-0.3-0.8-0.8-1-1.3s-0.3-1.2-0.3-1.9h1.1C110.3,26.3,110.4,26.8,110.6,27.2z"/>
	<path class="st1" d="M121.2,27.2c0.2,0.4,0.5,0.7,0.8,1c0.4,0.2,0.8,0.4,1.3,0.5s1,0.2,1.6,0.2c0.3,0,0.7,0,1-0.1
		c0.4-0.1,0.7-0.2,1-0.4c0.3-0.2,0.6-0.4,0.8-0.8c0.2-0.3,0.3-0.7,0.3-1.1c0-0.3-0.1-0.6-0.2-0.9c-0.2-0.2-0.3-0.5-0.6-0.6
		c-0.2-0.2-0.5-0.3-0.8-0.4s-0.6-0.2-0.9-0.3l-2.7-0.7c-0.3-0.1-0.7-0.2-1-0.3c-0.3-0.1-0.6-0.3-0.9-0.5c-0.2-0.2-0.4-0.5-0.6-0.8
		s-0.2-0.7-0.2-1.2c0-0.3,0.1-0.6,0.2-1s0.3-0.8,0.6-1.1c0.3-0.3,0.7-0.6,1.3-0.9c0.5-0.2,1.2-0.4,2.1-0.4c0.6,0,1.2,0.1,1.7,0.2
		c0.5,0.2,1,0.4,1.4,0.7c0.4,0.3,0.7,0.7,1,1.2c0.2,0.5,0.4,1,0.4,1.6h-1.1c0-0.5-0.1-0.9-0.3-1.2s-0.4-0.6-0.7-0.9
		c-0.3-0.2-0.6-0.4-1-0.5s-0.8-0.2-1.2-0.2c-0.4,0-0.8,0-1.1,0.1c-0.4,0.1-0.7,0.2-1,0.4c-0.3,0.2-0.5,0.4-0.7,0.7s-0.3,0.7-0.3,1.1
		c0,0.3,0,0.5,0.1,0.7s0.2,0.4,0.4,0.5c0.2,0.1,0.4,0.3,0.6,0.4s0.5,0.2,0.7,0.2l2.9,0.7c0.4,0.1,0.8,0.3,1.2,0.4
		c0.4,0.2,0.7,0.4,1,0.6s0.5,0.5,0.7,0.9c0.2,0.3,0.2,0.8,0.2,1.3c0,0.1,0,0.3,0,0.5s-0.1,0.5-0.2,0.7c-0.1,0.3-0.3,0.5-0.5,0.8
		s-0.5,0.5-0.8,0.7s-0.8,0.4-1.3,0.5s-1.1,0.2-1.8,0.2c-0.7,0-1.4-0.1-2-0.2c-0.6-0.2-1.1-0.4-1.6-0.8c-0.4-0.3-0.8-0.8-1-1.3
		s-0.3-1.2-0.3-1.9h1.1C120.9,26.3,121,26.8,121.2,27.2z"/>
</g>
<g>
	<path class="st1" d="M60.3,35.8h2.3l1.2,10.4l0,0l5.5-10.4h2.5L64.6,49H62L60.3,35.8z"/>
	<path class="st1" d="M77.6,46.2c0,0.2-0.1,0.3-0.1,0.5s-0.1,0.3-0.1,0.4s0,0.2,0.1,0.3s0.2,0.1,0.4,0.1c0.1,0,0.2,0,0.4,0
		c0.1,0,0.2-0.1,0.4-0.1L78.3,49c-0.3,0.1-0.5,0.1-0.8,0.2c-0.3,0.1-0.5,0.1-0.8,0.1c-0.4,0-0.7-0.1-0.9-0.3
		c-0.2-0.2-0.4-0.5-0.4-0.9c-0.4,0.4-0.9,0.7-1.5,0.9s-1.1,0.3-1.7,0.3c-0.4,0-0.8-0.1-1.1-0.2c-0.4-0.1-0.7-0.3-1-0.5
		s-0.5-0.5-0.7-0.8s-0.2-0.7-0.2-1.1c0-0.6,0.1-1.1,0.3-1.5c0.2-0.4,0.5-0.7,0.9-1s0.8-0.4,1.3-0.6c0.5-0.1,1-0.2,1.5-0.2
		c0.7,0,1.4-0.1,2.1-0.2c0.4,0,0.7-0.2,0.8-0.4c0.2-0.2,0.3-0.5,0.3-0.9c0-0.5-0.2-0.8-0.5-0.9c-0.3-0.2-0.7-0.2-1.1-0.2
		c-0.6,0-1.1,0.1-1.5,0.3s-0.7,0.6-0.9,1.2h-2c0.1-0.6,0.3-1.1,0.6-1.5c0.3-0.4,0.6-0.7,1-1s0.8-0.4,1.3-0.5s1-0.2,1.6-0.2
		c0.9,0,1.5,0.1,2,0.2c0.5,0.2,0.8,0.4,1.1,0.6c0.2,0.2,0.4,0.5,0.4,0.7c0,0.3,0.1,0.5,0.1,0.6c0,0.4-0.1,0.9-0.2,1.4L77.6,46.2z
		 M71.3,46.4c0,0.2,0.1,0.4,0.2,0.6c0.1,0.2,0.2,0.3,0.4,0.4s0.3,0.2,0.5,0.2s0.4,0.1,0.6,0.1c0.5,0,1-0.1,1.3-0.3
		c0.4-0.2,0.6-0.4,0.9-0.7c0.2-0.3,0.4-0.6,0.5-1s0.2-0.8,0.3-1.3l0,0c-0.1,0.1-0.3,0.3-0.6,0.3c-0.2,0.1-0.5,0.1-0.7,0.1
		c-0.3,0-0.6,0-1,0.1s-0.8,0.1-1.1,0.2c-0.3,0.1-0.6,0.3-0.9,0.5C71.4,45.7,71.3,46,71.3,46.4z"/>
	<path class="st1" d="M82.1,35.8h2.1L81.5,49h-2.1L82.1,35.8z"/>
	<path class="st1" d="M85.8,39.4h2.1L86,49h-2.1L85.8,39.4z M86.6,35.8h2.1l-0.4,2h-2.1L86.6,35.8z"/>
	<path class="st1" d="M97.2,49h-2l0.3-1.3l0,0c-0.4,0.6-0.9,1-1.4,1.3c-0.5,0.2-1,0.3-1.6,0.3c-0.3,0-0.6,0-1-0.1s-0.8-0.2-1.2-0.5
		c-0.4-0.3-0.7-0.7-1-1.2s-0.4-1.2-0.4-2.1c0-0.8,0.1-1.5,0.4-2.3c0.2-0.7,0.6-1.4,1-2s1-1,1.6-1.4s1.4-0.5,2.2-0.5
		c0.6,0,1.2,0.1,1.7,0.4c0.5,0.2,0.9,0.6,1.1,1.2l0,0l1.1-4.9h2.1L97.2,49z M96.3,43.1c0-0.3,0-0.6-0.1-0.9
		c-0.1-0.3-0.2-0.5-0.4-0.7c-0.2-0.2-0.4-0.4-0.7-0.5c-0.3-0.1-0.6-0.2-1-0.2c-0.6,0-1.1,0.1-1.5,0.4c-0.4,0.3-0.8,0.6-1,1
		c-0.3,0.4-0.5,0.9-0.6,1.4s-0.2,1.1-0.2,1.6c0,0.7,0.2,1.3,0.5,1.7c0.4,0.4,0.9,0.6,1.6,0.6c0.5,0,1-0.1,1.4-0.4
		c0.4-0.3,0.7-0.6,1-1.1c0.3-0.4,0.5-0.9,0.6-1.4C96.2,44.1,96.3,43.6,96.3,43.1z"/>
	<path class="st1" d="M108.1,46.2c0,0.2-0.1,0.3-0.1,0.5s-0.1,0.3-0.1,0.4s0,0.2,0.1,0.3s0.2,0.1,0.4,0.1c0.1,0,0.2,0,0.4,0
		c0.1,0,0.2-0.1,0.4-0.1l-0.3,1.5c-0.3,0.1-0.5,0.1-0.8,0.2c-0.3,0.1-0.5,0.1-0.8,0.1c-0.4,0-0.7-0.1-0.9-0.3
		c-0.2-0.2-0.4-0.5-0.4-0.9c-0.4,0.4-0.9,0.7-1.5,0.9s-1.1,0.3-1.7,0.3c-0.4,0-0.8-0.1-1.1-0.2c-0.4-0.1-0.7-0.3-1-0.5
		s-0.5-0.5-0.7-0.8s-0.2-0.7-0.2-1.1c0-0.6,0.1-1.1,0.3-1.5c0.2-0.4,0.5-0.7,0.9-1s0.8-0.4,1.3-0.6c0.5-0.1,1-0.2,1.5-0.2
		c0.7,0,1.4-0.1,2.1-0.2c0.4,0,0.7-0.2,0.8-0.4c0.2-0.2,0.3-0.5,0.3-0.9c0-0.5-0.2-0.8-0.5-0.9c-0.3-0.2-0.7-0.2-1.1-0.2
		c-0.6,0-1.1,0.1-1.5,0.3s-0.7,0.6-0.9,1.2h-2c0.1-0.6,0.3-1.1,0.6-1.5c0.3-0.4,0.6-0.7,1-1s0.8-0.4,1.3-0.5s1-0.2,1.6-0.2
		c0.9,0,1.5,0.1,2,0.2s0.8,0.4,1.1,0.6c0.2,0.2,0.4,0.5,0.4,0.7c0,0.3,0.1,0.5,0.1,0.6c0,0.4-0.1,0.9-0.2,1.4L108.1,46.2z
		 M101.8,46.4c0,0.2,0.1,0.4,0.2,0.6c0.1,0.2,0.2,0.3,0.4,0.4s0.3,0.2,0.5,0.2s0.4,0.1,0.6,0.1c0.5,0,1-0.1,1.3-0.3
		c0.4-0.2,0.6-0.4,0.9-0.7c0.2-0.3,0.4-0.6,0.5-1s0.2-0.8,0.3-1.3l0,0c-0.1,0.1-0.3,0.3-0.6,0.3c-0.2,0.1-0.5,0.1-0.7,0.1
		c-0.3,0-0.6,0-1,0.1s-0.8,0.1-1.1,0.2c-0.3,0.1-0.6,0.3-0.9,0.5C101.9,45.7,101.8,46,101.8,46.4z"/>
	<path class="st1" d="M113,36.6h2.1l-0.6,2.9h1.9l-0.3,1.6h-1.9l-1,4.7c0,0.2-0.1,0.4-0.1,0.6c0,0.2-0.1,0.3-0.1,0.4
		c0,0.2,0,0.4,0.1,0.5s0.3,0.2,0.6,0.2c0.2,0,0.3,0,0.5,0s0.4,0,0.6-0.1l-0.4,1.6c-0.3,0.1-0.6,0.1-0.9,0.1s-0.6,0.1-0.9,0.1
		c-0.4,0-0.7,0-0.9-0.1c-0.2-0.1-0.4-0.2-0.6-0.4c-0.1-0.2-0.2-0.4-0.3-0.6s-0.1-0.4-0.1-0.7c0-0.2,0-0.4,0-0.6
		c0-0.2,0.1-0.4,0.1-0.5l1.1-5.2h-1.7l0.3-1.6h1.7L113,36.6z"/>
	<path class="st1" d="M125.2,46c-0.3,1.1-0.9,1.9-1.7,2.4c-0.8,0.5-1.8,0.8-2.9,0.8c-0.6,0-1.2-0.1-1.7-0.3s-1-0.5-1.3-0.8
		c-0.4-0.4-0.7-0.8-0.9-1.3c-0.2-0.5-0.3-1.1-0.3-1.7c0-0.7,0.1-1.5,0.4-2.2c0.2-0.7,0.6-1.3,1-1.9c0.4-0.6,1-1,1.7-1.3
		s1.4-0.5,2.3-0.5c0.8,0,1.5,0.1,2.1,0.4c0.5,0.3,0.9,0.6,1.2,1.1c0.3,0.4,0.5,0.9,0.6,1.4s0.2,1,0.2,1.5c0,0.2,0,0.4,0,0.6
		c0,0.2,0,0.4-0.1,0.5h-7.1c0,0.1,0,0.1,0,0.2V45v0.3c0,0.7,0.2,1.2,0.5,1.6c0.4,0.4,0.9,0.6,1.7,0.6c0.6,0,1.1-0.1,1.5-0.4
		c0.4-0.3,0.7-0.6,0.8-1.2h2V46z M123.7,43.4c0-0.1,0-0.1,0-0.2s0-0.1,0-0.1v-0.3c0-0.6-0.2-1-0.5-1.4c-0.4-0.4-0.8-0.5-1.5-0.5
		c-0.8,0-1.4,0.2-1.9,0.7s-0.8,1.1-1,1.8H123.7z"/>
	<path class="st1" d="M135.1,49h-2l0.3-1.3l0,0c-0.4,0.6-0.9,1-1.4,1.3c-0.5,0.2-1,0.3-1.6,0.3c-0.3,0-0.6,0-1-0.1s-0.8-0.2-1.2-0.5
		c-0.4-0.3-0.7-0.7-1-1.2s-0.4-1.2-0.4-2.1c0-0.8,0.1-1.5,0.4-2.3c0.2-0.7,0.6-1.4,1-2c0.4-0.6,1-1,1.6-1.4s1.4-0.5,2.2-0.5
		c0.6,0,1.2,0.1,1.7,0.4c0.5,0.2,0.9,0.6,1.1,1.2l0,0l1.1-4.9h2.1L135.1,49z M134.2,43.1c0-0.3,0-0.6-0.1-0.9
		c-0.1-0.3-0.2-0.5-0.4-0.7s-0.4-0.4-0.7-0.5s-0.6-0.2-1-0.2c-0.6,0-1.1,0.1-1.5,0.4c-0.4,0.3-0.8,0.6-1,1c-0.3,0.4-0.5,0.9-0.6,1.4
		s-0.2,1.1-0.2,1.6c0,0.7,0.2,1.3,0.5,1.7c0.4,0.4,0.9,0.6,1.6,0.6c0.5,0,1-0.1,1.4-0.4c0.4-0.3,0.7-0.6,1-1.1
		c0.3-0.4,0.5-0.9,0.6-1.4C134.2,44.1,134.2,43.6,134.2,43.1z"/>
</g>
<path class="st1" d="M13.1,66.2c0-0.7,0.5-1.1,1.3-1.1c0.9,0,1.8,0.7,1.9,2h0.4v-2.4h-0.4c0.1,0.2-0.1,0.3-0.3,0.3
	c-0.5,0-0.8-0.4-1.6-0.4c-1.3,0-2.4,1.1-2.4,2.3c0,2.7,4.2,2.1,4.2,4.3c0,0.8-0.6,1.4-1.4,1.4c-1,0-2.2-0.6-2.6-2.3h-0.4V73h0.4
	c0-0.3,0.2-0.5,0.5-0.5c0.4,0,1.1,0.6,2,0.6c1.4,0,2.5-1.1,2.5-2.4C17.3,67.7,13.1,68.2,13.1,66.2z"/>
<path class="st1" d="M23.2,72.4c-1.1,0-3.2-0.9-3.1-4.5h5.8c0.1-1.8-1.6-3.3-3.4-3.3c-2.2,0-4,1.9-4,4.3s1.8,4.1,4.3,4.1
	c1.4,0,2.3-0.4,3.3-1.7v-0.6C24.8,72.1,24.3,72.4,23.2,72.4z M22.2,65.1c1,0,2.2,0.7,2.1,2.5H20C20.1,66.1,20.9,65.1,22.2,65.1z"/>
<path class="st1" d="M31.5,72.3c-1.6,0-3-1.8-3-4c0-1.9,1.1-3.3,2.7-3.3c1.3,0,2.3,0.9,2.7,2.3h0.4v-2.9h-0.4
	c-0.1,0.3-0.3,0.4-0.5,0.4c-0.4,0-1-0.4-2.2-0.4c-2.3,0-4.1,2-4.1,4.4s1.6,4,4,4c1.4,0,2.7-0.6,3.5-1.8v-0.6
	C33.6,71.9,32.4,72.3,31.5,72.3z"/>
<path class="st1" d="M43.5,71.3v-6.6h-0.4L40.4,65v0.4c1.4,0,1.5,0.1,1.5,1.2v4.3c-0.6,0.8-1.3,1.3-2.1,1.3c-1.1,0-1.8-0.7-1.8-1.8
	v-5.7h-0.4L35,64.9v0.4c1.1,0,1.4,0.3,1.4,1.1v4.1c0,1.5,1.1,2.7,2.6,2.7c1.1,0,2-0.5,2.8-1.5l0,0V73l2.9-0.2v-0.4
	C43.9,72.4,43.5,72.2,43.5,71.3z"/>
<path class="st1" d="M48.6,66.5v-1.7h-0.4L45.5,65v0.4c1.3,0,1.6,0.1,1.6,1.3V71c0,1.2-0.1,1.5-1.4,1.5v0.4H50v-0.4
	c-1.1,0-1.3-0.2-1.3-1.1v-4.3c0.7-0.7,1.2-1,1.7-1s1.3,0.4,1.9,0.7l0.6-1.4c-0.4-0.4-1-0.6-1.5-0.6C50.8,64.7,50.1,65.2,48.6,66.5z"
	/>
<path class="st1" d="M56.5,71.3v-6.6h-0.4l-2.7,0.2v0.4c1.1,0,1.5,0.1,1.5,1.2v4.9c0,0.9-0.3,1.1-1.5,1.1v0.4h4.3v-0.4
	C56.7,72.4,56.5,72.1,56.5,71.3z"/>
<circle class="st1" cx="55.7" cy="61.5" r="1"/>
<path class="st1" d="M62.9,72.2c-0.8,0-1.4-0.6-1.4-1.7v-5.1h2.7v-0.6h-2.7v-2.6h-0.4c-0.7,1.4-1.5,2.3-2.7,2.9v0.4h1.5v5.3
	c0,1.4,0.9,2.3,2.3,2.3c0.9,0,1.7-0.4,2.4-1.3l-0.2-0.3C63.9,72,63.5,72.2,62.9,72.2z"/>
<path class="st1" d="M70.9,65.3c0.8,0,0.9,0.6,0.6,1.5L70.2,71l-1.9-4.6c-0.3-0.7,0-1.1,0.6-1.2v-0.4H65v0.4c0.9,0,1.2,0.3,1.6,1.2
	l2.8,6.6l-1,2.9c-0.5,1.4-1.1,1.9-2,1.9c-0.3,0-0.4,0-0.8-0.2L65.2,79c0.4,0.3,0.6,0.4,1,0.4c0.9,0,2-1.1,2.6-2.9l3.2-9.3
	c0.4-1.3,1-1.9,1.8-1.9v-0.4H71L70.9,65.3L70.9,65.3z"/>
<path class="st1" d="M84.7,70.8L84.3,67c0-0.1,0-0.7,0-0.8c0-0.7,0.7-0.8,1.1-0.9v-0.4h-2.6l-2.5,5.9L78,64.9h-2.6v0.4
	c0.6,0.1,0.8,0.1,1.1,0.4L76,70.9c-0.1,1.1-0.5,1.4-1.3,1.5v0.4h2.9v-0.4c-0.9-0.2-1.1-0.7-1.1-1.5l0.5-4.7l2.7,6.6h0.4l2.7-6.6
	l0.4,4.5v0.6c0,0.9-0.4,1-1.1,1.1v0.4H86v-0.4C85.3,72.4,84.8,72.3,84.7,70.8z"/>
<path class="st1" d="M92.5,72.4h-1.2c-0.8,0-1,0-1-1.3v-1.9h1.4c1.2,0,1.2,0.6,1.3,1.1h0.4v-2.6H93c0,0.4-0.1,1.1-1.3,1.1h-1.4v-3.4
	h1.9c0.7,0,1.5,0,1.8,1.1h0.4L94.3,65h-6.6v0.4c0.9,0.1,1.3,0.2,1.3,1.4v4.5c0,1.2-0.3,1.3-1.3,1.4v0.4h6.7l0.4-1.5h-0.4
	C93.9,72.4,93.1,72.4,92.5,72.4z"/>
<path class="st1" d="M103.1,64.6c-0.4,0.3-0.5,0.4-1.2,0.4h-4.4c-0.8,0-0.9-0.2-1.2-0.4h-0.4V67h0.3c0-0.5,0.2-1.5,1.5-1.5h1.2v5.7
	c0,1.2-0.4,1.3-1.3,1.4V73h4.1v-0.4c-0.8-0.1-1.3-0.2-1.3-1.4v-5.7h1.2c1.4,0,1.5,1.1,1.5,1.5h0.3v-2.4H103.1z"/>
<path class="st1" d="M112.4,71.3c-1.1-1.5-1.5-2-2.3-2.4c1.3-0.4,1.8-1.1,1.8-1.9c0-2.1-2.6-2.1-3.2-2.1h-3.9v0.4
	c0.8,0.1,1.3,0.2,1.3,1.4l0,0V71c0,1.2-0.4,1.3-1.3,1.4v0.4h4v-0.4c-0.8-0.1-1.3-0.2-1.3-1.4v-1.8h0.7c0.6,0,1.1,0,2,1.4
	c1.1,1.5,1.3,1.7,1.7,2.2h2.3v-0.4C113.5,72.3,113.1,72.3,112.4,71.3z M108.4,68.9h-1v-3.6h1.2c1.2,0,1.7,0.7,1.7,1.8
	C110.3,68.5,109.3,68.9,108.4,68.9z"/>
<path class="st1" d="M115.1,65.2c0.8,0.1,1.3,0.2,1.3,1.4v4.5c0,1.2-0.4,1.3-1.3,1.4v0.4h4v-0.4c-0.8-0.1-1.3-0.2-1.3-1.4v-4.5
	c0-1.2,0.4-1.3,1.3-1.4v-0.4h-4V65.2z"/>
<path class="st1" d="M125.4,72.3c-1.5,0-3.1-1.1-3.1-3.6c0-1.8,0.9-3.7,3-3.7c0.6,0,1.5,0.1,2.2,1.1c0.3,0.4,0.4,0.7,0.5,1.2h0.3
	l-0.1-2.7h-0.3c-0.2,0.1-0.3,0.2-0.4,0.2c-0.2,0-0.4,0-0.5,0c-0.4,0-1.2-0.2-1.9-0.2c-2.2,0-4.3,1.8-4.3,4.2c0,1.8,1.5,4.1,4.3,4.1
	c2.4,0,3.2-1.4,3.5-1.9l-0.3-0.2C127.1,72.3,125.6,72.3,125.4,72.3z"/>
<path class="st1" d="M133.1,68.1c-1.7-1-2.1-1.2-2.1-1.9c0-0.5,0.5-1.1,1.4-1.1c1.1,0,1.8,0.8,1.9,2h0.3l0,0v-2.3h-0.3
	c-0.1,0-0.2,0.2-0.4,0.2c-0.1,0-0.2,0-0.8-0.2c-0.3,0-0.5-0.1-0.8-0.1c-1.5,0-2.3,1-2.3,2.1c0,1.2,0.9,1.8,1.8,2.3
	c1.5,0.9,2.1,1.3,2.1,2.2c0,0.9-0.8,1.4-1.5,1.4c-1.3,0-1.9-1.1-2.1-2.3h-0.4V73h0.4c0-0.1,0.1-0.3,0.4-0.3c0.1,0,0.2,0,0.3,0.1
	c0.8,0.4,1.1,0.4,1.5,0.4c1.6,0,2.6-1.2,2.6-2.3C135,69.8,134.5,68.9,133.1,68.1z"/>
<path class="st1" d="M137.3,65.3c0,0,0.1-0.1,0.1-0.2s0-0.1,0-0.2c0,0-0.1,0-0.1-0.1c-0.1,0-0.1,0-0.2,0h-0.2h-0.4v1.3h0.2v-0.5h0.2
	l0.5,0.5h0.3l-0.5-0.6C137.1,65.4,137.2,65.4,137.3,65.3z M136.9,65.4c-0.1,0-0.1,0-0.2,0h-0.2V65h0.2h0.1c0,0,0,0,0.1,0l0,0
	c0,0,0,0,0,0.1v0.1C137,65.3,137,65.3,136.9,65.4C137,65.3,137,65.4,136.9,65.4z"/>
<path class="st1" d="M137.7,64.5c-0.3-0.2-0.5-0.4-0.9-0.4s-0.7,0.1-0.9,0.4s-0.4,0.5-0.4,0.9s0.1,0.7,0.4,0.9
	c0.3,0.2,0.5,0.4,0.9,0.4s0.7-0.1,0.9-0.4s0.4-0.5,0.4-0.9C138.1,65.1,137.9,64.8,137.7,64.5z M137.6,66.2c-0.2,0.2-0.4,0.3-0.8,0.3
	c-0.3,0-0.5-0.1-0.8-0.3c-0.2-0.2-0.3-0.4-0.3-0.8c0-0.3,0.1-0.5,0.3-0.8c0.2-0.2,0.4-0.3,0.8-0.3c0.3,0,0.5,0.1,0.8,0.3
	c0.2,0.2,0.3,0.4,0.3,0.8C137.9,65.7,137.8,66,137.6,66.2z"/>
</svg>
